<svg xmlns="http://www.w3.org/2000/svg" width="738.4" height="342.6" viewBox="0 0 738.4 342.6"><rect width="738.4" height="342.6"/><line x1="39.12" y1="261.77" x2="699.28" y2="261.77" fill="none" stroke="#fff" stroke-miterlimit="10" stroke-width="2"/><line x1="42.78" y1="81.73" x2="699.28" y2="81.73" fill="none" stroke="#fff" stroke-miterlimit="10" stroke-width="2"/><rect x="78.28" y="45.13" width="581.84" height="252.34" rx="126.17" stroke="#fff" stroke-miterlimit="10" stroke-width="2"/><line x1="314.63" y1="174.68" x2="433.42" y2="174.68" fill="none" stroke="#fff" stroke-miterlimit="10" stroke-width="1.89"/><rect x="334.39" y="162.23" width="79.26" height="24.89" rx="12.45" stroke="#fff" stroke-miterlimit="10" stroke-width="2"/><circle cx="440.61" cy="269.97" r="12.81" fill="none" stroke="#fff" stroke-miterlimit="10" stroke-width="2.26"/><circle cx="228.65" cy="74.78" r="12.81" fill="none" stroke="#fff" stroke-miterlimit="10" stroke-width="2.26"/><circle cx="310.05" cy="74.78" r="12.81" fill="none" stroke="#fff" stroke-miterlimit="10" stroke-width="2.26"/><path d="M416.84,231.32a6.44,6.44,0,0,0-1.19-.1,4.25,4.25,0,0,0-2.78.92,5,5,0,0,0-1.61,2.65v10.89h-1.75V229.83h1.72l0,2.52a4.63,4.63,0,0,1,4.46-2.81,2.83,2.83,0,0,1,1.16.19Z" fill="#fff"/><path d="M425.47,246a6.85,6.85,0,0,1-3.66-1,6.68,6.68,0,0,1-2.54-2.77,8.62,8.62,0,0,1-.91-4v-.63a9.33,9.33,0,0,1,.89-4.12,7,7,0,0,1,2.47-2.88,6,6,0,0,1,3.42-1,5.7,5.7,0,0,1,4.58,2,8,8,0,0,1,1.69,5.38v1H420.1v.34a6.66,6.66,0,0,0,1.55,4.49,4.94,4.94,0,0,0,3.89,1.79A5.72,5.72,0,0,0,428,244a5.53,5.53,0,0,0,2-1.64l1.1.83A6.39,6.39,0,0,1,425.47,246ZM425.14,231a4.36,4.36,0,0,0-3.33,1.45,6.78,6.78,0,0,0-1.65,3.9h9.51v-.19a5.79,5.79,0,0,0-1.3-3.72A4,4,0,0,0,425.14,231Z" fill="#fff"/><path d="M444.32,241.65a2.51,2.51,0,0,0-1.05-2.1,8.08,8.08,0,0,0-3.16-1.23,14.23,14.23,0,0,1-3.27-1,4.37,4.37,0,0,1-1.73-1.41,3.58,3.58,0,0,1-.56-2,3.76,3.76,0,0,1,1.57-3.1,6.28,6.28,0,0,1,4-1.22,6.46,6.46,0,0,1,4.25,1.31,4.2,4.2,0,0,1,1.61,3.42h-1.76a2.86,2.86,0,0,0-1.16-2.32,5.27,5.27,0,0,0-5.72-.15,2.36,2.36,0,0,0-1,2,2.17,2.17,0,0,0,.87,1.84,9.28,9.28,0,0,0,3.18,1.19,14.81,14.81,0,0,1,3.45,1.16,4.42,4.42,0,0,1,1.71,1.48,4.06,4.06,0,0,1-1.06,5.3,6.93,6.93,0,0,1-4.23,1.2,7.14,7.14,0,0,1-4.49-1.34,4.11,4.11,0,0,1-1.72-3.39h1.76a3.06,3.06,0,0,0,1.29,2.39,5.25,5.25,0,0,0,3.16.86,5,5,0,0,0,3-.8A2.44,2.44,0,0,0,444.32,241.65Z" fill="#fff"/><path d="M456.15,246a6.84,6.84,0,0,1-3.65-1A6.68,6.68,0,0,1,450,242.2a8.62,8.62,0,0,1-.91-4v-.63a9.2,9.2,0,0,1,.89-4.12,7.08,7.08,0,0,1,2.46-2.88,6.09,6.09,0,0,1,3.43-1,5.7,5.7,0,0,1,4.58,2,8,8,0,0,1,1.69,5.38v1H450.79v.34a6.66,6.66,0,0,0,1.55,4.49,4.92,4.92,0,0,0,3.89,1.79,5.75,5.75,0,0,0,2.48-.51,5.53,5.53,0,0,0,2-1.64l1.09.83A6.36,6.36,0,0,1,456.15,246ZM455.83,231a4.36,4.36,0,0,0-3.33,1.45,6.78,6.78,0,0,0-1.65,3.9h9.51v-.19a5.8,5.8,0,0,0-1.31-3.72A4,4,0,0,0,455.83,231Z" fill="#fff"/><path d="M468.24,225.77v4.06h3.28v1.43h-3.28v10.58a3.35,3.35,0,0,0,.47,2,1.86,1.86,0,0,0,1.59.65,10.73,10.73,0,0,0,1.43-.15l.07,1.42a5.61,5.61,0,0,1-1.88.25,3.12,3.12,0,0,1-2.62-1.05,4.88,4.88,0,0,1-.82-3.08V231.26h-2.91v-1.43h2.91v-4.06Z" fill="#fff"/><path d="M211.14,112.34a9.5,9.5,0,0,1-1.64,5.88,5.24,5.24,0,0,1-4.41,2.18,5.71,5.71,0,0,1-5-2.46l-.07,2.17h-1.64V97.61h1.74v9a5.53,5.53,0,0,1,4.95-2.6,5.3,5.3,0,0,1,4.45,2.15,9.65,9.65,0,0,1,1.63,6Zm-1.75-.31a8.26,8.26,0,0,0-1.22-4.84,4,4,0,0,0-3.43-1.7,4.82,4.82,0,0,0-2.85.82,5,5,0,0,0-1.78,2.43v7.15a4.7,4.7,0,0,0,4.66,3,3.93,3.93,0,0,0,3.39-1.72A8.78,8.78,0,0,0,209.39,112Z" fill="#fff"/><path d="M214,112a9.33,9.33,0,0,1,.89-4.12A6.65,6.65,0,0,1,221.1,104a6.53,6.53,0,0,1,5.13,2.22,8.54,8.54,0,0,1,2,5.88v.37a9.45,9.45,0,0,1-.88,4.14,6.64,6.64,0,0,1-2.5,2.83,6.79,6.79,0,0,1-3.68,1,6.53,6.53,0,0,1-5.12-2.22,8.55,8.55,0,0,1-2-5.88Zm1.76.48a7.18,7.18,0,0,0,1.47,4.66,5,5,0,0,0,7.71,0,7.4,7.4,0,0,0,1.47-4.81V112a8.09,8.09,0,0,0-.67-3.33,5.52,5.52,0,0,0-1.89-2.34,4.84,4.84,0,0,0-2.79-.82,4.68,4.68,0,0,0-3.82,1.84,7.41,7.41,0,0,0-1.48,4.81Z" fill="#fff"/><path d="M230.85,112a9.33,9.33,0,0,1,.88-4.12,6.68,6.68,0,0,1,6.18-3.87,6.51,6.51,0,0,1,5.12,2.22,8.55,8.55,0,0,1,2,5.88v.37a9.45,9.45,0,0,1-.89,4.14,6.58,6.58,0,0,1-2.5,2.83,6.78,6.78,0,0,1-3.67,1,6.52,6.52,0,0,1-5.12-2.22,8.5,8.5,0,0,1-2-5.88Zm1.75.48a7.13,7.13,0,0,0,1.48,4.66,5,5,0,0,0,7.7,0,7.4,7.4,0,0,0,1.47-4.81V112a8.09,8.09,0,0,0-.67-3.33,5.52,5.52,0,0,0-1.89-2.34,4.84,4.84,0,0,0-2.78-.82,4.68,4.68,0,0,0-3.83,1.84,7.46,7.46,0,0,0-1.48,4.81Z" fill="#fff"/><path d="M251.34,100.2v4.06h3.28v1.43h-3.28v10.57a3.39,3.39,0,0,0,.47,2,1.86,1.86,0,0,0,1.59.65,10.47,10.47,0,0,0,1.42-.15l.08,1.42a5.61,5.61,0,0,1-1.88.25,3.12,3.12,0,0,1-2.62-1.05,4.9,4.9,0,0,1-.82-3.08V105.69h-2.91v-1.43h2.91V100.2Z" fill="#fff"/><path d="M297.15,110.83a9.5,9.5,0,0,1-1.64,5.88,5.22,5.22,0,0,1-4.39,2.17,5.87,5.87,0,0,1-5-2.28v8.09h-1.75v-22H286l.09,2.24a5.62,5.62,0,0,1,5-2.53,5.26,5.26,0,0,1,4.46,2.15,9.77,9.77,0,0,1,1.62,6Zm-1.75-.31a8.15,8.15,0,0,0-1.25-4.79,4,4,0,0,0-3.47-1.76,4.82,4.82,0,0,0-2.77.78,4.89,4.89,0,0,0-1.77,2.26v7.6a4.66,4.66,0,0,0,1.8,2.08,5.17,5.17,0,0,0,2.77.72,4,4,0,0,0,3.45-1.77A8.92,8.92,0,0,0,295.4,110.52Z" fill="#fff"/><path d="M308.36,104.24a6.42,6.42,0,0,0-1.19-.11,4.26,4.26,0,0,0-2.77.92,5,5,0,0,0-1.62,2.66v10.88H301V102.74h1.71l0,2.52a4.67,4.67,0,0,1,4.47-2.81,2.81,2.81,0,0,1,1.15.19Z" fill="#fff"/><path d="M309.87,110.43a9.32,9.32,0,0,1,.88-4.11,6.84,6.84,0,0,1,2.51-2.85,6.73,6.73,0,0,1,3.67-1,6.53,6.53,0,0,1,5.13,2.22,8.59,8.59,0,0,1,2,5.88v.37a9.38,9.38,0,0,1-.89,4.13,6.65,6.65,0,0,1-2.49,2.84,6.9,6.9,0,0,1-3.68,1,6.51,6.51,0,0,1-5.12-2.21,8.56,8.56,0,0,1-2-5.89Zm1.76.49a7.18,7.18,0,0,0,1.47,4.66,5,5,0,0,0,7.7,0,7.43,7.43,0,0,0,1.48-4.81v-.34a8,8,0,0,0-.68-3.32,5.4,5.4,0,0,0-1.89-2.34,4.84,4.84,0,0,0-2.78-.83,4.69,4.69,0,0,0-3.82,1.84,7.43,7.43,0,0,0-1.48,4.81Z" fill="#fff"/><path d="M326.93,110.52a9.55,9.55,0,0,1,1.65-5.9,5.32,5.32,0,0,1,4.48-2.17A5.5,5.5,0,0,1,338,105l.09-2.29h1.64v15.53a6.69,6.69,0,0,1-1.72,4.85,6.13,6.13,0,0,1-4.64,1.79,7.12,7.12,0,0,1-3.16-.74,6.14,6.14,0,0,1-2.36-2l1-1.06a5.56,5.56,0,0,0,4.42,2.29,4.51,4.51,0,0,0,3.43-1.3,5.11,5.11,0,0,0,1.27-3.6v-2a5.65,5.65,0,0,1-4.9,2.34,5.31,5.31,0,0,1-4.43-2.19,9.6,9.6,0,0,1-1.67-5.93Zm1.78.31a8.27,8.27,0,0,0,1.21,4.78,3.93,3.93,0,0,0,3.43,1.75,4.67,4.67,0,0,0,4.58-2.9v-7.37a5,5,0,0,0-1.77-2.32,4.79,4.79,0,0,0-2.78-.8,4,4,0,0,0-3.44,1.74A8.83,8.83,0,0,0,328.71,110.83Z" fill="#fff"/><rect x="426.98" y="57.08" width="104.72" height="35.39" rx="10.75" fill="none" stroke="#fff" stroke-miterlimit="10" stroke-width="1.97"/><path d="M456.18,121.78a5.69,5.69,0,0,1-5.06,2.3,4.9,4.9,0,0,1-3.85-1.47,6.44,6.44,0,0,1-1.35-4.36V107.94h1.75V118q0,4.53,3.66,4.53c2.54,0,4.14-1,4.82-3.15V107.94h1.76v15.85h-1.7Z" fill="#fff"/><path d="M472,119.76a2.51,2.51,0,0,0-1-2.09,8.07,8.07,0,0,0-3.16-1.24,13.91,13.91,0,0,1-3.27-1,4.22,4.22,0,0,1-1.73-1.41,3.5,3.5,0,0,1-.57-2,3.8,3.8,0,0,1,1.57-3.1,6.36,6.36,0,0,1,4-1.22A6.55,6.55,0,0,1,472,109a4.19,4.19,0,0,1,1.6,3.42h-1.75a2.82,2.82,0,0,0-1.17-2.31,5.23,5.23,0,0,0-5.71-.16,2.37,2.37,0,0,0-1.05,2,2.16,2.16,0,0,0,.87,1.84,9.28,9.28,0,0,0,3.18,1.19,14.92,14.92,0,0,1,3.46,1.16,4.58,4.58,0,0,1,1.71,1.48,4.08,4.08,0,0,1-1.07,5.3,6.9,6.9,0,0,1-4.22,1.2,7,7,0,0,1-4.49-1.34,4.11,4.11,0,0,1-1.72-3.39h1.75a3,3,0,0,0,1.3,2.4,5.32,5.32,0,0,0,3.16.85,5,5,0,0,0,3-.8A2.42,2.42,0,0,0,472,119.76Z" fill="#fff"/><path d="M490.41,116a9.57,9.57,0,0,1-1.64,5.88,5.23,5.23,0,0,1-4.41,2.17,5.69,5.69,0,0,1-5-2.46l-.07,2.17h-1.64v-22.5h1.74v8.95a5.5,5.5,0,0,1,4.95-2.59,5.29,5.29,0,0,1,4.45,2.14,9.69,9.69,0,0,1,1.63,6Zm-1.76-.31a8.26,8.26,0,0,0-1.21-4.84,4,4,0,0,0-3.43-1.71,4.85,4.85,0,0,0-2.86.83,5,5,0,0,0-1.77,2.42v7.15a4.7,4.7,0,0,0,4.66,3,4,4,0,0,0,3.39-1.71A8.89,8.89,0,0,0,488.65,115.72Z" fill="#fff"/><path d="M499.73,115.12h-7v-1.48h7Z" fill="#fff"/><path d="M508.72,122.6a4.63,4.63,0,0,0,3.07-1,3.63,3.63,0,0,0,1.34-2.67h1.69a5,5,0,0,1-.91,2.64,5.71,5.71,0,0,1-2.22,1.87,6.7,6.7,0,0,1-3,.67,6.12,6.12,0,0,1-4.94-2.16,8.76,8.76,0,0,1-1.83-5.83v-.53a10,10,0,0,1,.82-4.15,6.32,6.32,0,0,1,2.35-2.78,6.57,6.57,0,0,1,3.59-1,6.14,6.14,0,0,1,4.3,1.55,5.72,5.72,0,0,1,1.81,4.09h-1.69a4.25,4.25,0,0,0-4.42-4.15,4.36,4.36,0,0,0-3.69,1.72,7.76,7.76,0,0,0-1.31,4.8v.51a7.63,7.63,0,0,0,1.31,4.74A4.41,4.41,0,0,0,508.72,122.6Z" fill="#fff"/></svg>