<svg id="b4aca82f-c21e-4371-a758-f2d5b5c87425" data-name="Layer 2" xmlns="http://www.w3.org/2000/svg" xmlns:xlink="http://www.w3.org/1999/xlink" viewBox="0 0 128 128"><defs><linearGradient id="addb4045-05c9-4d1d-9020-429d183c375f" x1="64" y1="-65.31" x2="64" y2="176.44" gradientUnits="userSpaceOnUse"><stop offset="0" stop-color="#ff7854"/><stop offset="1" stop-color="#fd267d"/></linearGradient></defs><circle cx="64" cy="64" r="64" style="fill:url(#addb4045-05c9-4d1d-9020-429d183c375f)"/><rect x="39.23" y="99.53" width="49.54" height="9.28" rx="4.64" style="fill:#fff"/><path d="M31.84,99.94a3,3,0,0,1-2.1-.84,49.47,49.47,0,1,1,68.52,0,3,3,0,0,1-4.19-4.37,43.43,43.43,0,1,0-60.13,0,3,3,0,0,1-2.1,5.21Z" transform="translate(0 0)" style="fill:#fff"/><path d="M64,38.23c-3.09,0-19.71,19.63-19.71,30.51a19.71,19.71,0,0,0,39.42,0C83.71,57.86,67.37,38.23,64,38.23Zm0,42a9.56,9.56,0,0,1-9.55-9.56c0-5.27,8-14.79,9.55-14.79s9.55,9.52,9.55,14.79A9.56,9.56,0,0,1,64,80.26Z" transform="translate(0 0)" style="fill:#fff"/></svg>