<svg id="f48996ae-de61-40ef-a08d-2b2eb74758e6" data-name="Layer 1" xmlns="http://www.w3.org/2000/svg" xmlns:xlink="http://www.w3.org/1999/xlink" viewBox="0 0 500 100"><defs><linearGradient id="a248ccfd-6d6a-44cc-9bb6-e3034eba9ab9" x1="51.77" y1="-45.65" x2="51.77" y2="132.75" gradientUnits="userSpaceOnUse"><stop offset="0" stop-color="#ff7854"/><stop offset="1" stop-color="#fd267d"/></linearGradient></defs><circle cx="51.77" cy="49.77" r="47.23" style="fill:url(#a248ccfd-6d6a-44cc-9bb6-e3034eba9ab9)"/><rect x="33.5" y="75.99" width="36.56" height="6.85" rx="3.23" style="fill:#fff"/><path d="M28,76.3a2.21,2.21,0,0,1-1.55-.63,36.51,36.51,0,1,1,50.56,0A2.23,2.23,0,0,1,74,72.45a31.87,31.87,0,0,0,9.83-23.08A32,32,0,0,0,22.27,36.91a32,32,0,0,0,7.32,35.54A2.24,2.24,0,0,1,28,76.3Z" style="fill:#fff"/><path d="M51.77,30.75c-2.28,0-14.54,14.49-14.54,22.52a14.54,14.54,0,1,0,29.08,0C66.31,45.24,54.26,30.75,51.77,30.75Zm0,31a7.05,7.05,0,0,1-7.05-7.05c0-3.89,6-10.92,7.05-10.92s7,7,7,10.92A7.05,7.05,0,0,1,51.77,61.77Z" style="fill:#fff"/><path d="M134.31,36.94a13.7,13.7,0,0,1,2.51.56l-1,6.91c-1.07-.23-2.13-.41-3.18-.53a29.65,29.65,0,0,0-3.12-.17,12.73,12.73,0,0,0-3.16.35,7.8,7.8,0,0,0-2.49,1.08,7,7,0,0,0-2,1.79,10.27,10.27,0,0,0-1.38,2.49V69h-7V37.29h6.56l.29,4.4,0,.73A14.43,14.43,0,0,1,125,38.23a12,12,0,0,1,6-1.52A22.07,22.07,0,0,1,134.31,36.94Z" style="fill:#fff"/><path d="M164.84,67.57c-.13-.56-.24-1.14-.34-1.74a14.73,14.73,0,0,1-1.65,1.45,10.41,10.41,0,0,1-2.07,1.18,11.84,11.84,0,0,1-2.46.82,12.82,12.82,0,0,1-2.84.3,13.44,13.44,0,0,1-4.5-.72,10.5,10.5,0,0,1-3.47-2,8.48,8.48,0,0,1-2.27-3,8.83,8.83,0,0,1-.81-3.77,9.91,9.91,0,0,1,1-4.61,8.88,8.88,0,0,1,3-3.33,13.94,13.94,0,0,1,4.55-1.87,26.59,26.59,0,0,1,6.14-.65h5.1V47.55a5.68,5.68,0,0,0-.43-2.23,5.11,5.11,0,0,0-1.21-1.73,6.07,6.07,0,0,0-2.07-1.13,9.15,9.15,0,0,0-2.8-.39,7.86,7.86,0,0,0-2.5.35,4.84,4.84,0,0,0-1.77,1,3.29,3.29,0,0,0-1,1.36,4.31,4.31,0,0,0-.34,1.71h-7A8.32,8.32,0,0,1,146,42.8a9.21,9.21,0,0,1,2.57-3.11,12.56,12.56,0,0,1,4.06-2.18,17.34,17.34,0,0,1,5.52-.8,19.23,19.23,0,0,1,5.2.68,12.26,12.26,0,0,1,4.18,2,9.37,9.37,0,0,1,2.75,3.41,10.78,10.78,0,0,1,1,4.76V61.7a21.44,21.44,0,0,0,.31,3.85,11.46,11.46,0,0,0,.89,2.94V69h-7.15A5.72,5.72,0,0,1,164.84,67.57Zm-5.45-4a9.72,9.72,0,0,0,2.15-.91,7.78,7.78,0,0,0,1.67-1.26A5.78,5.78,0,0,0,164.3,60V54.11h-4.51a16.35,16.35,0,0,0-4,.42,7.19,7.19,0,0,0-2.67,1.22,4.18,4.18,0,0,0-1.3,1.61,5.13,5.13,0,0,0-.42,2.11,4.51,4.51,0,0,0,.35,1.8,3.72,3.72,0,0,0,1,1.42,5.07,5.07,0,0,0,1.67.93,7.53,7.53,0,0,0,2.35.33A9.16,9.16,0,0,0,159.39,63.6Z" style="fill:#fff"/><path d="M209.21,63.34V69H180.56v-4.6L198.78,43H180.91V37.29h27.42v4.45L189.9,63.34Z" style="fill:#fff"/><path d="M215,37.29h7.27l7.85,23,.47,2.11.46-2.11,7.77-23h7.26L233.67,69h-6.18Z" style="fill:#fff"/><path d="M271.55,37.29v25.9h9.32V69H254.74v-5.8h9.75V43.12h-9.75V37.29Zm-7.41-9.77a3.56,3.56,0,0,1,.85-1.24,3.72,3.72,0,0,1,1.27-.78,4.72,4.72,0,0,1,1.69-.28,3.89,3.89,0,0,1,2.56.81,3,3,0,0,1,1.13,2.06,3,3,0,0,1-.44,2.24,3.12,3.12,0,0,1-1.87,1.28,3.1,3.1,0,0,1-1.47.73,3.61,3.61,0,0,1-1.87-.15,2.78,2.78,0,0,1-1.6-1.15,3.53,3.53,0,0,1-.54-1.95A4.22,4.22,0,0,1,264.14,27.52Z" style="fill:#fff"/><path d="M303.19,37.29h11.93v5.25H303.19V57.68a8.67,8.67,0,0,0,.43,3,4.45,4.45,0,0,0,1.18,1.86,4.31,4.31,0,0,0,1.82,1,8.46,8.46,0,0,0,2.32.3c.6,0,1.23,0,1.87-.09s1.27-.14,1.88-.24,1.13-.17,1.65-.27l1.3-.28.77,4.83a8.66,8.66,0,0,1-1.83.81,22.74,22.74,0,0,1-2.3.57c-.82.15-1.68.28-2.57.36a26.29,26.29,0,0,1-2.65.14,14.07,14.07,0,0,1-4.41-.66,8.72,8.72,0,0,1-3.44-2.07A9.23,9.23,0,0,1,297,63.34a15,15,0,0,1-.81-5.22V42.54h-7.67V37.29h7.67V29.56h7Z" style="fill:#fff"/><path d="M335.17,61.31a4.85,4.85,0,0,1,3.77-1.43A4.74,4.74,0,0,1,344,64.77a4.67,4.67,0,0,1-1.36,3.43,5.73,5.73,0,0,1-7.47,0,4.76,4.76,0,0,1-1.33-3.42A5,5,0,0,1,335.17,61.31Z" style="fill:#fff"/><path d="M388.68,57.65a19.9,19.9,0,0,1-.94,3.69A14.26,14.26,0,0,1,385.87,65a10.67,10.67,0,0,1-5.76,4.08,12,12,0,0,1-3.53.49,12.37,12.37,0,0,1-3.51-.47,9.2,9.2,0,0,1-2.85-1.38,11.77,11.77,0,0,1-1.21-1,12.6,12.6,0,0,1-1.1-1.19L367.59,69h-6.33V24h7V40.4A9.8,9.8,0,0,1,369.61,39a9.6,9.6,0,0,1,4-2,13.12,13.12,0,0,1,2.88-.3,12.49,12.49,0,0,1,3.77.54,10.65,10.65,0,0,1,3.09,1.54,9.41,9.41,0,0,1,2.09,2,15.22,15.22,0,0,1,1.63,2.6,18.59,18.59,0,0,1,1.42,4.36,26,26,0,0,1,.48,5.1v.61A25.62,25.62,0,0,1,388.68,57.65Zm-6.84-7.42a19.92,19.92,0,0,0-.45-2.39,11.13,11.13,0,0,0-1.07-2.45,5.94,5.94,0,0,0-1.78-1.86,5.31,5.31,0,0,0-1.66-.79,7.67,7.67,0,0,0-2.11-.26,8,8,0,0,0-2.58.39,6.6,6.6,0,0,0-3.09,2.29,8,8,0,0,0-.84,1.42V59.7a8.25,8.25,0,0,0,1,1.6,7.16,7.16,0,0,0,1.31,1.27,6.41,6.41,0,0,0,1.89.93,8.05,8.05,0,0,0,2.38.33,7.3,7.3,0,0,0,2.17-.3,6.62,6.62,0,0,0,1.73-.84,6,6,0,0,0,1.69-1.86,10.21,10.21,0,0,0,1-2.53,16.61,16.61,0,0,0,.44-2.29,23.35,23.35,0,0,0,.14-2.55v-.61A20.37,20.37,0,0,0,381.84,50.23Z" style="fill:#fff"/><path d="M416.88,67.57c-.13-.56-.24-1.14-.34-1.74a14.73,14.73,0,0,1-1.65,1.45,10.41,10.41,0,0,1-2.07,1.18,11.84,11.84,0,0,1-2.46.82,12.76,12.76,0,0,1-2.84.3,13.44,13.44,0,0,1-4.5-.72,10.6,10.6,0,0,1-3.47-2,8.48,8.48,0,0,1-2.27-3,8.83,8.83,0,0,1-.81-3.77,9.91,9.91,0,0,1,1-4.61,8.88,8.88,0,0,1,3-3.33,14,14,0,0,1,4.55-1.87,26.66,26.66,0,0,1,6.14-.65h5.1V47.55a5.51,5.51,0,0,0-.43-2.23,5.11,5.11,0,0,0-1.21-1.73,6.07,6.07,0,0,0-2.07-1.13,9.15,9.15,0,0,0-2.8-.39,7.86,7.86,0,0,0-2.5.35,5,5,0,0,0-1.77,1,3.29,3.29,0,0,0-1,1.36,4.31,4.31,0,0,0-.34,1.71h-7a8.32,8.32,0,0,1,.91-3.66,9.21,9.21,0,0,1,2.57-3.11,12.56,12.56,0,0,1,4.06-2.18,17.34,17.34,0,0,1,5.52-.8,19.36,19.36,0,0,1,5.21.68,12.3,12.3,0,0,1,4.17,2,9.37,9.37,0,0,1,2.75,3.41,10.78,10.78,0,0,1,1,4.76V61.7a21.44,21.44,0,0,0,.31,3.85,11.46,11.46,0,0,0,.89,2.94V69h-7.15A5.72,5.72,0,0,1,416.88,67.57Zm-5.45-4a9.72,9.72,0,0,0,2.15-.91,7.54,7.54,0,0,0,1.67-1.26A5.78,5.78,0,0,0,416.34,60V54.11h-4.51a16.35,16.35,0,0,0-4,.42,7.07,7.07,0,0,0-2.66,1.22,4.12,4.12,0,0,0-1.31,1.61,5.13,5.13,0,0,0-.42,2.11,4.51,4.51,0,0,0,.35,1.8,3.72,3.72,0,0,0,1,1.42,5.07,5.07,0,0,0,1.67.93,7.53,7.53,0,0,0,2.35.33A9.1,9.1,0,0,0,411.43,63.6Z" style="fill:#fff"/><path d="M433.15,37.29h6.33l.44,4.51a14.33,14.33,0,0,1,1.42-1.68A12.11,12.11,0,0,1,443,38.73a11.37,11.37,0,0,1,3.07-1.5,11.71,11.71,0,0,1,3.52-.52,13.4,13.4,0,0,1,4.45.7,8.51,8.51,0,0,1,3.46,2.23,10.34,10.34,0,0,1,2.23,3.88,18.23,18.23,0,0,1,.79,5.7V69h-7V49.33a10.58,10.58,0,0,0-.44-3.28,5.11,5.11,0,0,0-1.29-2.11,5,5,0,0,0-2.05-1.13,10.44,10.44,0,0,0-2.76-.33,8.39,8.39,0,0,0-2.4.33,7.53,7.53,0,0,0-2,1,7,7,0,0,0-1.32,1.14,9,9,0,0,0-1.08,1.46V69h-7Z" style="fill:#fff"/><path d="M469.09,46.33a15.24,15.24,0,0,1,2.5-5.11,11.07,11.07,0,0,1,9.2-4.51,10.76,10.76,0,0,1,4.62.92,10.91,10.91,0,0,1,3.5,2.62V24h7V69h-6.36l-.32-3.31a10.64,10.64,0,0,1-3.63,2.89,11.21,11.21,0,0,1-4.87,1,11,11,0,0,1-5.21-1.22A11.57,11.57,0,0,1,471.59,65a16.12,16.12,0,0,1-2.49-5.09,22.34,22.34,0,0,1-.88-6.37v-.61A23.34,23.34,0,0,1,469.09,46.33Zm6.54,11.18a10.23,10.23,0,0,0,1.29,3.25A6.54,6.54,0,0,0,479.18,63a6.42,6.42,0,0,0,3.31.8,7,7,0,0,0,3.93-1,7.7,7.7,0,0,0,2.49-2.83V46.31a7.63,7.63,0,0,0-2.48-2.79,6.72,6.72,0,0,0-3.88-1,6.49,6.49,0,0,0-3.36.82A6.35,6.35,0,0,0,477,45.55a10.55,10.55,0,0,0-1.32,3.33,19.18,19.18,0,0,0-.41,4v.61A18.86,18.86,0,0,0,475.63,57.51Z" style="fill:#fff"/></svg>