<svg id="ad2ac112-ce6f-411b-96a9-9b455e39523d" data-name="Layer 1" xmlns="http://www.w3.org/2000/svg" xmlns:xlink="http://www.w3.org/1999/xlink" viewBox="0 0 500 100"><defs><linearGradient id="e905d4ce-e68e-4c9f-9ca5-6d6e1aa54590" x1="50" y1="-46.98" x2="50" y2="134.33" gradientUnits="userSpaceOnUse"><stop offset="0" stop-color="#ff7854"/><stop offset="1" stop-color="#fd267d"/></linearGradient></defs><circle cx="50" cy="50" r="48" style="fill:url(#e905d4ce-e68e-4c9f-9ca5-6d6e1aa54590)"/><rect x="31.43" y="76.65" width="37.16" height="6.96" rx="3.23" style="fill:#fff"/><path d="M25.88,77a2.23,2.23,0,0,1-1.57-.64A37.06,37.06,0,1,1,84,64.37,36.87,36.87,0,0,1,75.7,76.32a2.27,2.27,0,1,1-3.15-3.27,32.37,32.37,0,0,0,10-23.46,32.54,32.54,0,1,0-62.4,13,32.64,32.64,0,0,0,7.31,10.49A2.27,2.27,0,0,1,25.88,77Z" style="fill:#fff"/><path d="M50,30.67c-2.31,0-14.78,14.73-14.78,22.89a14.78,14.78,0,0,0,29.56,0C64.78,45.4,52.53,30.67,50,30.67Zm0,31.52A7.16,7.16,0,0,1,42.84,55c0-4,6-11.1,7.16-11.1s7.16,7.14,7.16,11.1A7.16,7.16,0,0,1,50,62.19Z" style="fill:#fff"/><path d="M125.24,43.65v33H115.12V35.17h9.59Zm12.62-8.74-.16,9.43a15.77,15.77,0,0,0-1.89-.23c-.71,0-1.36-.08-2-.08a12.18,12.18,0,0,0-4.1.63,7.64,7.64,0,0,0-2.93,1.82,7.93,7.93,0,0,0-1.79,2.9,12.94,12.94,0,0,0-.69,3.85L122.14,53a31.89,31.89,0,0,1,.8-7.32,20.55,20.55,0,0,1,2.34-5.9,11.27,11.27,0,0,1,3.86-3.93,10,10,0,0,1,5.34-1.4,13.45,13.45,0,0,1,1.83.13A6.53,6.53,0,0,1,137.86,34.91Z" style="fill:#fff"/><path d="M166.11,51.39l.08,6h-6.4a16.29,16.29,0,0,0-4.18.48,8.08,8.08,0,0,0-3,1.38,5.75,5.75,0,0,0-1.73,2.15,6.69,6.69,0,0,0-.57,2.81,5.37,5.37,0,0,0,.71,2.77,5,5,0,0,0,2.07,1.93,6.84,6.84,0,0,0,3.2.71A9.51,9.51,0,0,0,161,68.55a9,9,0,0,0,3.11-2.67,5.79,5.79,0,0,0,1.19-3l2.91,4.37a17.11,17.11,0,0,1-1.61,3.34,15,15,0,0,1-2.76,3.3,13.76,13.76,0,0,1-9.58,3.52,15.64,15.64,0,0,1-7.21-1.61,12.67,12.67,0,0,1-5-4.41A11.26,11.26,0,0,1,140.2,65a13.19,13.19,0,0,1,1.22-5.83,11.38,11.38,0,0,1,3.65-4.27,17.25,17.25,0,0,1,6-2.65,33.9,33.9,0,0,1,8.22-.9Zm-1.42,16.45V48.71a8.55,8.55,0,0,0-.72-3.65,5.27,5.27,0,0,0-2.23-2.37,7.65,7.65,0,0,0-3.79-.85,8.48,8.48,0,0,0-3.55.69,5.31,5.31,0,0,0-2.32,1.94,5.11,5.11,0,0,0-.8,2.86H141.12a10.28,10.28,0,0,1,1.22-4.89,13.16,13.16,0,0,1,3.51-4.14,17.05,17.05,0,0,1,5.48-2.86,23.34,23.34,0,0,1,7.19-1A21.14,21.14,0,0,1,166.94,36a13.06,13.06,0,0,1,5.83,4.77,14.17,14.17,0,0,1,2.12,8v18.1a29.84,29.84,0,0,0,.41,5.31A14.11,14.11,0,0,0,176.5,76v.66H166.19a15,15,0,0,1-1.11-4A30.38,30.38,0,0,1,164.69,67.84Z" style="fill:#fff"/><path d="M215.8,41.23,189.12,76.66h-6.67V70.41L209,35.17h6.82Zm-3.72-6.06v8H183v-8Zm4.45,33.51v8H185.32v-8Z" style="fill:#fff"/><path d="M230.45,35.17l9.77,33.9.35,7.59h-6.48L219.83,35.17ZM237.5,69l9.66-33.82h10.58L243.52,76.66h-6.44Z" style="fill:#fff"/><path d="M263,24.32a5,5,0,0,1,1.55-3.75,6.63,6.63,0,0,1,8.4,0,5,5,0,0,1,1.55,3.75A5,5,0,0,1,272.91,28a6.63,6.63,0,0,1-8.4,0A4.91,4.91,0,0,1,263,24.32Zm10.85,10.85V76.66H263.65V35.17Z" style="fill:#fff"/><path d="M303.1,35.17v7.29H279.33V35.17ZM285.69,25h10.16V64.69a6.51,6.51,0,0,0,.5,2.84,2.53,2.53,0,0,0,1.5,1.34,7.22,7.22,0,0,0,2.37.35,13,13,0,0,0,1.84-.12c.56-.07,1-.15,1.42-.23l0,7.59a17.14,17.14,0,0,1-2.86.69,21.48,21.48,0,0,1-3.58.27,14.27,14.27,0,0,1-6-1.17,8.46,8.46,0,0,1-4-3.79,14.72,14.72,0,0,1-1.42-7Z" style="fill:#fff"/><path d="M310.27,71.71a5.26,5.26,0,0,1,1.57-3.87,6.55,6.55,0,0,1,8.51,0,5.26,5.26,0,0,1,1.57,3.87,5.16,5.16,0,0,1-1.57,3.82,6.62,6.62,0,0,1-8.51,0A5.16,5.16,0,0,1,310.27,71.71Z" style="fill:#fff"/><path d="M332.12,17.77h10.16V67.49l-1,9.17h-9.16ZM369,55.49v.81a33.83,33.83,0,0,1-1,8.51,20.16,20.16,0,0,1-3.05,6.69,14.19,14.19,0,0,1-5,4.37,15.1,15.1,0,0,1-7,1.55,14.09,14.09,0,0,1-6.65-1.49,13.31,13.31,0,0,1-4.73-4.24,23.16,23.16,0,0,1-3.07-6.48A49.71,49.71,0,0,1,336.64,57V54.84a49.09,49.09,0,0,1,1.73-8.2,23.43,23.43,0,0,1,3.07-6.48,13.38,13.38,0,0,1,4.71-4.26,13.91,13.91,0,0,1,6.6-1.49A15.39,15.39,0,0,1,359.86,36a13.82,13.82,0,0,1,5.06,4.37A20.33,20.33,0,0,1,368,47,33.62,33.62,0,0,1,369,55.49Zm-10.16.81v-.81a28.49,28.49,0,0,0-.42-5A14,14,0,0,0,357,46.33a7.43,7.43,0,0,0-2.6-2.84,7.67,7.67,0,0,0-4.15-1,9.33,9.33,0,0,0-4,.8,7.63,7.63,0,0,0-2.76,2.23,10.45,10.45,0,0,0-1.69,3.33A19.61,19.61,0,0,0,341,53v6a17.83,17.83,0,0,0,1.26,5.31,8.51,8.51,0,0,0,3,3.74,8.77,8.77,0,0,0,5.12,1.38,7.83,7.83,0,0,0,4.1-1A7,7,0,0,0,357,65.63a13.39,13.39,0,0,0,1.36-4.16A30.83,30.83,0,0,0,358.8,56.3Z" style="fill:#fff"/><path d="M400.59,51.39l.08,6h-6.4a16.29,16.29,0,0,0-4.18.48,8.08,8.08,0,0,0-2.95,1.38,5.75,5.75,0,0,0-1.73,2.15,6.69,6.69,0,0,0-.57,2.81,5.37,5.37,0,0,0,.71,2.77,5,5,0,0,0,2.07,1.93,6.84,6.84,0,0,0,3.2.71,9.51,9.51,0,0,0,4.67-1.09,9,9,0,0,0,3.11-2.67,5.79,5.79,0,0,0,1.19-3l2.91,4.37a17.11,17.11,0,0,1-1.61,3.34,15,15,0,0,1-2.76,3.3,13.76,13.76,0,0,1-9.58,3.52,15.64,15.64,0,0,1-7.21-1.61,12.67,12.67,0,0,1-5-4.41A11.26,11.26,0,0,1,374.68,65a13.19,13.19,0,0,1,1.22-5.83,11.38,11.38,0,0,1,3.65-4.27,17.25,17.25,0,0,1,6-2.65,33.9,33.9,0,0,1,8.22-.9Zm-1.42,16.45V48.71a8.55,8.55,0,0,0-.72-3.65,5.27,5.27,0,0,0-2.23-2.37,7.65,7.65,0,0,0-3.79-.85,8.48,8.48,0,0,0-3.55.69,5.31,5.31,0,0,0-2.32,1.94,5.11,5.11,0,0,0-.8,2.86H375.6a10.28,10.28,0,0,1,1.22-4.89,13.16,13.16,0,0,1,3.51-4.14,17.05,17.05,0,0,1,5.48-2.86,23.34,23.34,0,0,1,7.19-1A21.14,21.14,0,0,1,401.42,36a13.06,13.06,0,0,1,5.83,4.77,14.17,14.17,0,0,1,2.12,8v18.1a29.84,29.84,0,0,0,.41,5.31A14.11,14.11,0,0,0,411,76v.66H400.67a15,15,0,0,1-1.11-4A30.38,30.38,0,0,1,399.17,67.84Z" style="fill:#fff"/><path d="M428.43,44V76.66H418.31V35.17h9.5Zm-1.61,10.39h-3a27.21,27.21,0,0,1,1.22-8.2,19.12,19.12,0,0,1,3.36-6.33,14.69,14.69,0,0,1,5.16-4.06,15.27,15.27,0,0,1,6.67-1.42,16.36,16.36,0,0,1,5.4.84,10.37,10.37,0,0,1,4.16,2.68,12.38,12.38,0,0,1,2.69,4.82,24.69,24.69,0,0,1,.93,7.3V76.66H443.23V50a10.11,10.11,0,0,0-.83-4.48A4.81,4.81,0,0,0,440,43.15a9.42,9.42,0,0,0-3.82-.69,8.42,8.42,0,0,0-4.08.94A8.33,8.33,0,0,0,429.21,46a12.27,12.27,0,0,0-1.78,3.79A16.79,16.79,0,0,0,426.82,54.42Z" style="fill:#fff"/><path d="M460.59,56.41v-.8a31.93,31.93,0,0,1,1.1-8.65,20,20,0,0,1,3.2-6.69A14.67,14.67,0,0,1,470,35.94a14.84,14.84,0,0,1,6.84-1.53,13.62,13.62,0,0,1,6.5,1.49,13.94,13.94,0,0,1,4.75,4.26,22.92,22.92,0,0,1,3.16,6.53A45.13,45.13,0,0,1,493,55v2.18a42.87,42.87,0,0,1-1.73,8.09,22.89,22.89,0,0,1-3.16,6.42,14,14,0,0,1-4.77,4.24,13.81,13.81,0,0,1-6.56,1.49,14.41,14.41,0,0,1-6.8-1.57,14.75,14.75,0,0,1-5.1-4.41,20.53,20.53,0,0,1-3.18-6.67A30.3,30.3,0,0,1,460.59,56.41Zm10.16-.8v.8a26.64,26.64,0,0,0,.46,5,13.32,13.32,0,0,0,1.5,4.12,7.81,7.81,0,0,0,2.66,2.78,7.52,7.52,0,0,0,4,1A8.58,8.58,0,0,0,484.27,68a8.74,8.74,0,0,0,3-3.64,16.82,16.82,0,0,0,1.38-5.23v-6a17.51,17.51,0,0,0-.79-4.26,10.57,10.57,0,0,0-1.76-3.37,8,8,0,0,0-2.78-2.23,8.91,8.91,0,0,0-3.91-.8,7.53,7.53,0,0,0-4,1,7.82,7.82,0,0,0-2.68,2.82,13.88,13.88,0,0,0-1.52,4.18A26,26,0,0,0,470.75,55.61Zm16.49,12.23V17.77h10.2V76.66h-9.2Z" style="fill:#fff"/></svg>